# xmcd CD database file
#
# Track frame offsets:
#	150
#	19396
#	34746
#	45004
#	61792
#	74230
#	86450
#	100989
#	117678
#	137830
#	147635
#	166947
#	184849
#	203996
#	218675
#	229624
#	246885
#	257097
#
# Disc length: 3648 seconds
#
# Revision: 0
# Processed by: cddbd v1.5.2PL0 Copyright (c) Steve Scherf et al.
# Submitted via: CDex 1.70beta1
#
DISCID=0b0e3e12
DTITLE=Little People - 1-2-3 Sing-Along
DYEAR=1900
DGENRE=Country
TTITLE0=Five Striped and Buzzing Bees
TTITLE1=One Elephant, Two Elephants
TTITLE2=Three Little Piggies
TTITLE3=One, Two, Buckle My Shoe
TTITLE4=Three Blue Pigeons
TTITLE5=One Plus One Is Two
TTITLE6=Ladybug Picnic #12
TTITLE7=Jump Three Times
TTITLE8=More or Less or the Same
TTITLE9='Round the Clock the Hands They Go!
TTITLE10=I Can Count with My Fingers
TTITLE11=Five Little Monkeys
TTITLE12=Everyone Gets One
TTITLE13=One Bottle Pop
TTITLE14=Two Little Blackbirds
TTITLE15=One, Two, Three O'Leary
TTITLE16=Counting Backwards
TTITLE17=Line Them Up and Count Them
EXTD=
EXTT0=
EXTT1=
EXTT2=
EXTT3=
EXTT4=
EXTT5=
EXTT6=
EXTT7=
EXTT8=
EXTT9=
EXTT10=
EXTT11=
EXTT12=
EXTT13=
EXTT14=
EXTT15=
EXTT16=
EXTT17=
PLAYORDER=
